<?xml version="1.0" encoding="UTF-8"?>
<svg width="600px" height="600px" viewBox="0 0 600 600" version="1.1" xmlns="http://www.w3.org/2000/svg" xmlns:xlink="http://www.w3.org/1999/xlink">
    <title>assets/icon</title>
    <defs>
        <path d="M599,299.623445 C599,134.145952 464.909845,0 299.498818,0 C134.090155,0 0,134.145952 0,299.623445 L0,300.374191 C0,465.851683 134.090155,600 299.498818,600 C464.909845,600 599,465.851683 599,300.374191 L599,299.623445 Z" id="path-1"></path>
        <linearGradient x1="77.1837088%" y1="50.3661589%" x2="43.183589%" y2="49.6735431%" id="linearGradient-3">
            <stop stop-color="#000000" stop-opacity="0" offset="0%"></stop>
            <stop stop-color="#000000" offset="100%"></stop>
        </linearGradient>
        <linearGradient x1="99.1370585%" y1="49.9977216%" x2="47.7932489%" y2="49.9977216%" id="linearGradient-4">
            <stop stop-color="#000000" stop-opacity="0" offset="0%"></stop>
            <stop stop-color="#000000" offset="96%"></stop>
        </linearGradient>
    </defs>
    <g id="/assets/icon" stroke="none" fill="none" fill-rule="evenodd" stroke-width="1">
        <g id="Clipped" transform="translate(1, 0)">
            <mask id="mask-2" fill="white">
                <use xlink:href="#path-1"></use>
            </mask>
            <g id="Path"></g>
            <g id="Group" mask="url(#mask-2)" fill-rule="nonzero">
                <g transform="translate(1.2724, 1.0766)" id="Path">
                    <path d="M259.577305,268.950849 L259.54776,219.509179 C259.54776,216.568855 258.383701,213.743211 256.303758,211.662403 L213.575107,168.78001 L183.76574,201.724177 L253.428473,271.499839 C255.699865,273.774542 259.58085,272.160733 259.58085,268.94612 L259.577305,268.950849 Z" fill="url(#linearGradient-3)"></path>
                    <path d="M165.191611,388.156358 L81.2207591,304.228832 L51.2111971,336.879794 L162.291508,448.039904 C164.561719,450.309877 168.439158,448.701979 168.439158,445.486184 L168.439158,396.009046 C168.439158,393.06281 167.270372,390.239531 165.191611,388.156358 Z" fill="url(#linearGradient-4)"></path>
                    <path d="M277.050009,0.74687037 C126.338036,11.1755406 5.89195333,136.131412 0.216544734,287.343542 C-5.3228403,434.986376 96.0353908,559.902287 232.883125,590.546924 L50.4405545,407.775074 C47.8262078,405.156329 46.3593751,401.60122 46.3680021,397.895961 L46.5041439,338.850651 C46.5083983,336.383237 49.4885078,335.148939 51.2272694,336.895163 L81.236595,304.241837 C79.3535374,302.356104 79.3535374,299.294005 81.236595,297.410637 L110.102543,268.565426 C111.986073,266.682058 115.034017,266.686787 116.913293,268.565426 L214.436629,366.251118 C218.582334,370.403277 220.908089,376.032101 220.908089,381.900927 L220.908089,483.823902 C220.908089,498.50779 226.733111,512.589899 237.096192,522.971479 L311.452979,597.45379 C330.342644,596.645112 348.756051,594.054741 366.559655,589.874208 L272.360683,495.489435 C267.699719,490.820621 265.082064,484.488342 265.082064,477.887686 L265.082064,379.393316 C265.082064,363.24695 258.679148,347.756748 247.278459,336.340675 L148.295618,237.193689 C146.413033,235.309138 146.411851,232.245857 148.300345,230.360124 L176.965744,201.735999 C178.84951,199.853813 181.897336,199.85736 183.776376,201.739546 L213.586925,168.797744 C213.030304,168.158132 212.500864,167.460588 211.976151,166.735852 C203.463747,155.229925 198.289888,136.255551 204.322905,114.857508 C207.936807,101.15822 215.441147,90.8275963 229.272769,78.2739357 C230.490009,77.1712253 232.405684,77.1157765 233.643013,78.1888117 L269.47358,109.283187 L276.531205,115.419326 C279.24104,117.774187 282.481497,119.443563 285.971311,120.273522 L397.681987,146.871222 C398.986678,147.177432 400.187373,147.846601 401.130438,148.766413 L515.874758,263.426065 C517.877885,265.347266 519.015945,268.025125 519.015945,270.810571 L519.015945,295.187955 C519.015945,298.935775 518.075243,302.628028 516.271838,305.911213 L459.487026,409.543761 C457.011184,414.08016 451.473335,415.980081 446.74501,413.915824 L420.570816,402.48911 L324.908793,402.48911 C318.761143,402.48911 313.785824,407.480686 313.785824,413.634442 L313.785824,456.356045 C313.785824,462.237876 316.10567,467.886799 320.240739,472.056692 L419.320486,572.06083 C523.663909,525.532293 596.432375,420.708009 596.432375,298.860109 C596.432375,126.776049 451.311431,-11.325485 277.031101,0.734089948 L277.050009,0.74687037 Z" fill="#000000"></path>
                </g>
            </g>
        </g>
    </g>
</svg>